<svg viewBox="0 0 18 18" fill="currentColor" xmlns="http://www.w3.org/2000/svg">
  <path fill-rule="evenodd" clip-rule="evenodd" d="M2.6 1.6001C1.71634 1.6001 1 2.31644 1 3.2001V12.0001C1 12.8838 1.71634 13.6001 2.6 13.6001H4.5432C5.07364 13.6001 5.58235 13.3894 5.95742 13.0143L7.58584 11.3859C8.36689 10.6048 9.63322 10.6048 10.4143 11.3859L12.0427 13.0143C12.4178 13.3894 12.9265 13.6001 13.4569 13.6001H15.4C16.2837 13.6001 17 12.8838 17 12.0001V3.2001C17 2.31644 16.2837 1.6001 15.4 1.6001H2.6ZM9.89223 4.91616C10.27 4.74618 10.714 4.91459 10.8839 5.29232L12 7.77245L13.1161 5.29232C13.286 4.91459 13.73 4.74618 14.1078 4.91616C14.4855 5.08614 14.6539 5.53014 14.4839 5.90787L12.6839 9.90787C12.5628 10.177 12.2951 10.3501 12 10.3501C11.7049 10.3501 11.4372 10.177 11.3161 9.90787L9.51606 5.90787C9.34608 5.53014 9.5145 5.08614 9.89223 4.91616ZM3.45 5.6001C3.45 5.18588 3.78579 4.8501 4.2 4.8501H6H7.8C8.21421 4.8501 8.55 5.18588 8.55 5.6001C8.55 6.01431 8.21421 6.3501 7.8 6.3501H6.75V9.6001C6.75 10.0143 6.41421 10.3501 6 10.3501C5.58579 10.3501 5.25 10.0143 5.25 9.6001V6.3501H4.2C3.78579 6.3501 3.45 6.01431 3.45 5.6001ZM9.56571 12.2344C9.25329 11.922 8.74676 11.922 8.43434 12.2344L5.63434 15.0344C5.40554 15.2632 5.3371 15.6073 5.46092 15.9062C5.58474 16.2052 5.87645 16.4001 6.20002 16.4001H11.8C12.1236 16.4001 12.4153 16.2052 12.5391 15.9062C12.663 15.6073 12.5945 15.2632 12.3657 15.0344L9.56571 12.2344Z"/>
  </svg>
  