<svg xmlns="http://www.w3.org/2000/svg" viewBox="0 0 24 24" fill="none">
  <g clip-path="url(#clip0_65966_73209)">
  <path fill-rule="evenodd" clip-rule="evenodd" d="M12 24C18.6274 24 24 18.6274 24 12C24 5.37258 18.6274 0 12 0C5.37258 0 0 5.37258 0 12C0 18.6274 5.37258 24 12 24Z" fill="url(#paint0_linear_65966_73209)"/>
  <path fill-rule="evenodd" clip-rule="evenodd" d="M4.28227 17.2996C4.70347 17.817 5.18504 18.2832 5.71624 18.6876L5.79103 19.2755L4.74941 19.4537C4.19521 19.0033 3.69221 18.4924 3.2505 17.9309L4.21241 17.956L4.28227 17.2996ZM19.7172 17.2996L19.7871 17.956L20.749 17.9309C20.3073 18.4924 19.8043 19.0033 19.2501 19.4537L18.2085 19.2755L18.2833 18.6876C18.8145 18.2832 19.2961 17.8169 19.7172 17.2996ZM2.93114 14.9467C3.14766 15.5246 3.42601 16.0723 3.75815 16.5817L3.68036 17.347L2.77627 17.2729C2.36883 16.6542 2.03104 15.9856 1.77404 15.2782L2.60435 15.6152L2.93114 14.9467ZM21.0683 14.9467L21.3955 15.6154L22.2253 15.2784C21.9683 15.9858 21.6306 16.6543 21.2232 17.273L20.3189 17.3466L20.2412 16.5819C20.5734 16.0724 20.8518 15.5247 21.0683 14.9467ZM2.40175 12.1858C2.41542 12.8157 2.49844 13.4285 2.64347 14.0169L2.26981 14.804L1.5103 14.4313C1.32842 13.7344 1.22287 13.0067 1.20312 12.2576L1.81557 12.8084L2.40175 12.1858ZM21.5977 12.1858L22.1839 12.8084L22.7963 12.2577C22.7766 13.0067 22.6711 13.7343 22.4892 14.4311L21.7297 14.8035L21.356 14.0168C21.501 13.4284 21.584 12.8157 21.5977 12.1858ZM1.57762 9.324L1.97656 9.95048L2.76726 9.53476C2.59393 10.1002 2.47867 10.6911 2.42844 11.3004L1.76655 11.9728L1.21571 11.4413C1.25764 10.7106 1.38127 10.0019 1.57762 9.324ZM22.4219 9.32405C22.6182 10.0019 22.7418 10.7106 22.7837 11.4412L22.2327 11.9726L21.571 11.3006C21.5208 10.6913 21.4056 10.1005 21.2323 9.53506L22.0233 9.95077L22.4219 9.32405ZM2.87855 6.57475L3.03021 7.32663L3.96275 7.11865C3.61173 7.60944 3.31223 8.13961 3.07218 8.70124L2.19194 9.1605L1.84408 8.53494C2.11368 7.8386 2.46216 7.18155 2.87855 6.57475ZM21.121 6.57482C21.5373 7.18162 21.8858 7.83867 22.1554 8.535L21.8076 9.1605L20.9273 8.7012C20.6872 8.13958 20.3877 7.60942 20.0367 7.11863L20.9693 7.32663L21.121 6.57482ZM5.73646 4.4999L5.06101 5.8379L3.54492 6.56518L3.98692 5.23636C4.03815 5.18476 4.08996 5.13373 4.14234 5.0833L5.73646 4.4999ZM18.2629 4.4999L19.8572 5.08334C19.9095 5.13373 19.9613 5.18471 20.0125 5.23627L20.4545 6.56518L18.9384 5.8379L18.2629 4.4999ZM8.99973 2.9999C9.3311 2.9999 9.59973 3.26853 9.59973 3.5999C9.59973 3.93127 9.3311 4.1999 8.99973 4.1999C8.66836 4.1999 8.39973 3.93127 8.39973 3.5999C8.39973 3.26853 8.66836 2.9999 8.99973 2.9999ZM14.9997 2.9999C15.3311 2.9999 15.5997 3.26853 15.5997 3.5999C15.5997 3.93127 15.3311 4.1999 14.9997 4.1999C14.6684 4.1999 14.3997 3.93127 14.3997 3.5999C14.3997 3.26853 14.6684 2.9999 14.9997 2.9999ZM11.9997 2.3999C12.3311 2.3999 12.5997 2.66853 12.5997 2.9999C12.5997 3.33127 12.3311 3.5999 11.9997 3.5999C11.6684 3.5999 11.3997 3.33127 11.3997 2.9999C11.3997 2.66853 11.6684 2.3999 11.9997 2.3999Z" fill="#FFFFFE"/>
  <path fill-rule="evenodd" clip-rule="evenodd" d="M15.7422 7.5L12 13.4245L8.25778 7.5H6L12 17L18 7.5H15.7422ZM14.3667 7.5H9.63111L11.9978 11.2491L14.3667 7.5Z" fill="white"/>
  <path fill-rule="evenodd" clip-rule="evenodd" d="M12.3752 18.5C12.8437 18.5 13.2101 18.7624 13.2981 19.2769H12.8014C12.7521 19.0801 12.6253 18.9282 12.3787 18.9282C12.2448 18.9282 12.1356 18.9765 12.0652 19.0559C11.9701 19.1595 11.9419 19.2769 11.9419 19.75C11.9419 20.2231 11.9701 20.3405 12.0652 20.4441C12.1356 20.5235 12.2448 20.5718 12.3787 20.5718C12.6253 20.5718 12.7521 20.4199 12.8014 20.2231H13.2981C13.2101 20.7376 12.8402 21 12.3752 21C12.1004 21 11.8749 20.9033 11.6988 20.7307C11.4733 20.5097 11.4539 20.2423 11.4523 19.8873L11.4522 19.75L11.4522 19.7165C11.452 19.309 11.4519 19.0114 11.6988 18.7693C11.8749 18.5967 12.1004 18.5 12.3752 18.5ZM13.7209 18.5207H14.2105V19.5912L15.0948 18.5207H15.6901L14.8587 19.4979L15.75 20.9793H15.1793L14.5346 19.8605L14.2105 20.2403V20.9793H13.7209V18.5207ZM10.952 20.9793V18.5207H10.4623V20.9793H10.952ZM9.22229 18.5207C9.74014 18.5207 10.0501 18.8695 10.0501 19.2873C10.0501 19.7051 9.74014 20.0539 9.22229 20.0539H8.73967V20.9793H8.25V18.5207H9.22229ZM9.19771 18.949H8.73975V19.6223H9.19771C9.41965 19.6223 9.56056 19.4876 9.56056 19.2874C9.56056 19.0871 9.41965 18.949 9.19771 18.949Z" fill="#FFFFFE"/>
  </g>
  <defs>
  <linearGradient id="paint0_linear_65966_73209" x1="12" y1="0" x2="12" y2="24" gradientUnits="userSpaceOnUse">
  <stop/>
  <stop offset="1" stop-color="#383838"/>
  </linearGradient>
  <clipPath id="clip0_65966_73209">
  <rect width="24" height="24" fill="white"/>
  </clipPath>
  </defs>
  </svg>